
<svg width="400" height="400" viewBox="0 0 400 400" xmlns="http://www.w3.org/2000/svg">
  <defs>
    <pattern id="arabesque" x="0" y="0" width="100" height="100" patternUnits="userSpaceOnUse">
      <path fill="none" stroke="#eac27e" stroke-width="0.3" opacity="0.15" d="M50,0 C50,27.6 27.6,50 0,50 C27.6,50 50,72.4 50,100 C50,72.4 72.4,50 100,50 C72.4,50 50,27.6 50,0 Z" />
      <path fill="none" stroke="#eac27e" stroke-width="0.3" opacity="0.15" d="M0,0 C27.6,0 50,22.4 50,50 C50,22.4 72.4,0 100,0" />
      <path fill="none" stroke="#eac27e" stroke-width="0.3" opacity="0.15" d="M0,100 C27.6,100 50,77.6 50,50 C50,77.6 72.4,100 100,100" />
      <path fill="none" stroke="#eac27e" stroke-width="0.3" opacity="0.15" d="M25,25 C25,38.8 38.8,25 50,25 C61.2,25 75,38.8 75,25 C75,11.2 61.2,25 50,25 C38.8,25 25,11.2 25,25 Z" />
      <path fill="none" stroke="#eac27e" stroke-width="0.3" opacity="0.15" d="M25,75 C25,88.8 38.8,75 50,75 C61.2,75 75,88.8 75,75 C75,61.2 61.2,75 50,75 C38.8,75 25,61.2 25,75 Z" />
    </pattern>
  </defs>
  <rect x="0" y="0" width="400" height="400" fill="url(#arabesque)" />
</svg>
